<?xml version="1.0" encoding="utf-8"?>
<!-- Generator: Adobe Illustrator 21.1.0, SVG Export Plug-In . SVG Version: 6.00 Build 0)  -->
<svg version="1.1" id="Layer_1" xmlns="http://www.w3.org/2000/svg" xmlns:xlink="http://www.w3.org/1999/xlink" x="0px" y="0px"
	 viewBox="0 0 512 512" style="enable-background:new 0 0 512 512;" xml:space="preserve">
<style type="text/css">
	.st0{fill:#B0D1CC;}
	.st1{fill:#FFFFFF;}
</style>
<path class="st0" d="M437,75C390.7,28.6,326.7,0,256,0S121.3,28.6,75,75S0,185.3,0,256s28.6,134.7,75,181c46.4,46.4,110.3,75,181,75
	s134.7-28.6,181-75c46.4-46.4,75-110.3,75-181S483.4,121.3,437,75z"/>
<path class="st1" d="M275.6,203.7v-21c0-10.1,6.7-12.5,11.5-12.5c4.7,0,29.3,0,29.3,0v-44.8H276c-44.9,0-55,33.2-55,54.7v23.5h-26.1
	v31.6V256h26.4c0,59.4,0,130.7,0,130.7h52.3c0,0,0-72.3,0-130.7h38.7l1.7-20.6l3.1-31.8H275.6z"/>
</svg>
