<?xml version="1.0" encoding="utf-8"?>
<!-- Generator: Adobe Illustrator 21.1.0, SVG Export Plug-In . SVG Version: 6.00 Build 0)  -->
<svg version="1.1" id="Layer_1" xmlns="http://www.w3.org/2000/svg" xmlns:xlink="http://www.w3.org/1999/xlink" x="0px" y="0px"
	 viewBox="0 0 512 512" style="enable-background:new 0 0 512 512;" xml:space="preserve">
<style type="text/css">
	.st0{fill:#A0A0A0;}
	.st1{fill:#FFFFFF;}
</style>
<path class="st0" d="M437,75C390.8,28.6,326.7,0,256,0C185.4,0,121.3,28.6,75,75C28.6,121.3,0,185.3,0,256s28.6,134.7,75,181
	c46.4,46.4,110.4,75,181,75c70.7,0,134.8-28.6,181-75c46.4-46.4,75-110.3,75-181S483.4,121.3,437,75z"/>
<path class="st1" d="M190.5,256c0-36.1,29.3-65.6,65.5-65.6c36.3,0,65.6,29.5,65.6,65.6c0,36.3-29.3,65.6-65.6,65.6
	C219.9,321.6,190.5,292.3,190.5,256L190.5,256z M323.8,127.7H188.4c-33.3,0-60.7,27.2-60.7,60.7v135.4c0,33.3,27.4,60.7,60.7,60.7
	h135.4c33.5,0,60.7-27.4,60.7-60.7V188.4C384.4,154.9,357.2,127.7,323.8,127.7L323.8,127.7z M188.4,142.9h135.4
	c25.1,0,45.5,20.4,45.5,45.5v135.4c0,25.1-20.4,45.5-45.5,45.5H188.4c-25.1,0-45.5-20.4-45.5-45.5V188.4
	C142.9,163.3,163.3,142.9,188.4,142.9L188.4,142.9z M337.2,162c-7.4,0-13.3,6-13.3,13.3c0,7.4,5.9,13.3,13.3,13.3s13.3-6,13.3-13.3
	S344.6,162,337.2,162L337.2,162z M338.8,256c0-45.6-37-82.8-82.8-82.8c-45.6,0-82.8,37.1-82.8,82.8c0,45.8,37.1,82.8,82.8,82.8
	C301.8,338.8,338.8,301.8,338.8,256L338.8,256z"/>
</svg>
