<?xml version="1.0" encoding="utf-8"?>
<!-- Generator: Adobe Illustrator 21.1.0, SVG Export Plug-In . SVG Version: 6.00 Build 0)  -->
<svg version="1.1" id="Layer_1" xmlns="http://www.w3.org/2000/svg" xmlns:xlink="http://www.w3.org/1999/xlink" x="0px" y="0px"
	 viewBox="0 0 512 512" style="enable-background:new 0 0 512 512;" xml:space="preserve">
<style type="text/css">
	.st0{fill:#B0D1CC;}
	.st1{fill:#FFFFFF;}
</style>
<path class="st0" d="M437,75C390.8,28.6,326.7,0,256,0C185.4,0,121.3,28.6,75,75C28.6,121.3,0,185.3,0,256c0,70.7,28.6,134.7,75,181
	c46.4,46.4,110.4,75,181,75c70.7,0,134.8-28.6,181-75c46.4-46.3,75-110.3,75-181C512,185.3,483.4,121.3,437,75z"/>
<path class="st1" d="M262.2,125.4c-73.4,0-110.7,50.9-110.7,93.6c0,7.9,0.9,15.6,2.8,22.5c4.4,16,13.9,28.9,28.9,34.9
	c3.5,1.6,6.8,0,7.7-3.7c0.9-2.7,2.4-9.2,3.3-12c1.1-3.8,0.7-5.1-2.1-8.4c-3.7-4.4-6.8-9.4-8.5-15.6c-1.1-4.1-1.8-8.6-1.8-13.9
	c0-37.8,29.3-71.9,76.4-71.9c41.5,0,64.5,24.5,64.5,57.4c0,9.8-1,19-2.8,27.8c-6.5,30.2-23.5,52-46.4,52
	c-16.2,0-28.5-12.9-24.5-28.9c2.3-8.9,5.5-18.3,8.4-27.4c3-9.5,5.5-18.7,5.5-25.8c0-12.5-6.8-22.5-21.1-22.5
	c-16.6,0-29.9,16.7-29.9,38.8c0,4.1,0.4,8.1,1,11.1c1.6,7.9,4,12.8,4,12.8s-17,69.6-19.8,81.8c-6,24.4-0.9,54-0.4,57
	c0.1,1.7,2.5,2.1,3.7,0.8c1.6-2,21.3-25.4,28.1-49c1.7-6.8,10.9-41.4,10.9-41.4c5.2,10.1,21,18.9,37.8,18.9
	c40.4,0,70.4-29.3,80.2-72c2.3-9.6,3.4-20.1,3.4-30.9C360.6,166.7,321.6,125.4,262.2,125.4L262.2,125.4z"/>
</svg>
